# xmcd
#
# Track frame offsets:
#	150
#	17292
#	34406
#	47762
#	61421
#	71749
#	86798
#	103544
#	118447
#	138078
#	148906
#	169696
#	180835
#	202459
#	214458
#	223834
#
# Disc length: 3184 seconds
# Revision: 0
# Processed by: cddbd v1.5.2PL0 Copyright (c) Steve Scherf et al.
# Submitted via: dBpowerAMP V12.0
#
DISCID=fe0c6e10
DTITLE=Townes Van Zandt - Sunshine Boy: The Unheard Studio Sessions and Demos 1971-1972, Disc 1
DYEAR=2013
DGENRE=Americana
TTITLE0=T for Texas
TTITLE1=Who Do You Love
TTITLE2=Sunshine Boy
TTITLE3=Where I Lead Me
TTITLE4=Blue Ridge Mountains
TTITLE5=No Deal
TTITLE6=Pancho and Lefty
TTITLE7=To Live Is to Fly
TTITLE8=You Are Not Needed Now
TTITLE9=Don't Take It Too Bad
TTITLE10=Sad Cinderella
TTITLE11=Mr. Mudd and Mr. Gold
TTITLE12=White Freight Liner Blues
TTITLE13=Two Hands
TTITLE14=Lungs
TTITLE15=Dead Flowers
EXTD=
EXTT0=
EXTT1=
EXTT2=
EXTT3=
EXTT4=
EXTT5=
EXTT6=
EXTT7=
EXTT8=
EXTT9=
EXTT10=
EXTT11=
EXTT12=
EXTT13=
EXTT14=
EXTT15=
PLAYORDER=
